<?xml version="1.0" encoding="utf-8"?>
<!-- Generator: Adobe Illustrator 25.2.3, SVG Export Plug-In . SVG Version: 6.00 Build 0)  -->
<svg version="1.1" xmlns="http://www.w3.org/2000/svg" xmlns:xlink="http://www.w3.org/1999/xlink" x="0px" y="0px"
	 viewBox="0 0 500 500" style="enable-background:new 0 0 500 500;" xml:space="preserve">
<style type="text/css">
	.st0{display:none;}
	.st1{display:inline;}
	.st2{fill:#CA2027;}
	.st3{display:inline;fill:#767676;}
	.st4{fill:#767676;}
	.st5{fill:#FFFFFF;}
</style>
<g id="Logo" class="st0">
	<g class="st1">
		<path class="st2" d="M250.01,41.64C134.94,41.64,41.64,134.92,41.64,250c0,85.32,51.3,158.61,124.72,190.84
			c-0.59-14.55-0.11-32.02,3.63-47.84c4.01-16.91,26.81-113.53,26.81-113.53s-6.66-13.3-6.66-32.97c0-30.88,17.9-53.94,40.18-53.94
			c18.95,0,28.11,14.24,28.11,31.28c0,19.05-12.15,47.55-18.4,73.95c-5.22,22.1,11.08,40.13,32.89,40.13
			c39.48,0,66.07-50.7,66.07-110.78c0-45.67-30.76-79.85-86.7-79.85c-63.2,0-102.58,47.13-102.58,99.78
			c0,18.15,5.35,30.96,13.74,40.87c3.86,4.55,4.39,6.38,2.99,11.61c-1,3.84-3.29,13.06-4.24,16.72c-1.39,5.28-5.66,7.16-10.43,5.21
			c-29.11-11.89-42.67-43.76-42.67-79.6c0-59.19,49.92-130.16,148.92-130.16c79.55,0,131.91,57.56,131.91,119.36
			c0,81.73-45.44,142.8-112.42,142.8c-22.5,0-43.66-12.16-50.9-25.97c0,0-12.1,48-14.66,57.28c-4.42,16.07-13.06,32.12-20.97,44.63
			c18.74,5.53,38.53,8.55,59.05,8.55c115.06,0,208.35-93.29,208.35-208.37C458.36,134.92,365.07,41.64,250.01,41.64z"/>
	</g>
</g>
<g id="Lupa" class="st0">
	<path class="st3" d="M426.04,356.53l-67.56-67.56c10.89-21.45,17.07-45.7,17.07-71.41c0-87.26-70.74-157.99-157.99-157.99
		S59.56,130.3,59.56,217.55s70.74,157.99,157.99,157.99c25.71,0,49.95-6.18,71.41-17.07l67.56,67.56c19.2,19.2,50.32,19.2,69.52,0
		C445.24,406.85,445.24,375.72,426.04,356.53z M122.76,217.55c0-52.35,42.44-94.8,94.8-94.8s94.8,42.44,94.8,94.8
		c0,52.35-42.44,94.8-94.8,94.8S122.76,269.91,122.76,217.55z"/>
</g>
<g id="Campana" class="st0">
	<g class="st1">
		<path class="st4" d="M370.85,277.42V156.62c0-67.12-54.41-121.54-121.54-121.54h0c-67.12,0-121.54,54.41-121.54,121.54v121.54
			h0.38c-30.9,21.3-51.19,56.9-51.19,97.27h346.07C423.03,334.61,402.33,298.64,370.85,277.42z"/>
		<path class="st4" d="M304.93,409.99c0,30.34-24.59,54.93-54.93,54.93s-54.93-24.59-54.93-54.93H304.93z"/>
	</g>
</g>
<g id="Globo" class="st0">
	<g class="st1">
		<path class="st4" d="M250,23.12c-113.67,0-205.81,92.14-205.81,205.81c0,49.84,17.72,95.53,47.2,131.14l-24.93,116.8l96.43-61.47
			c26.46,12.39,55.97,19.34,87.12,19.34c113.67,0,205.81-92.14,205.81-205.81C455.81,115.27,363.67,23.12,250,23.12z"/>
		<circle class="st5" cx="138.21" cy="229.03" r="31.45"/>
		<circle class="st5" cx="250" cy="229.03" r="31.45"/>
		<circle class="st5" cx="361.79" cy="229.03" r="31.45"/>
	</g>
</g>
<g id="Usuario" class="st0">
	<g class="st1">
		<circle class="st4" cx="250" cy="250" r="208.29"/>
		<g>
			<path class="st5" d="M116.11,376.98c19.88-49.1,69.73-89.5,133.53-89.68c63.24-0.18,113.88,39.48,134.25,89.58
				C315.57,447.87,191.72,453.09,116.11,376.98z"/>
			<path class="st5" d="M250.06,111.89c42.03,0.01,76.35,34.33,76.21,76.36c-0.14,43.07-35.25,76.25-76.39,76.16
				c-41.97-0.09-76.24-34.4-76.09-76.43C173.93,145.99,208.04,111.88,250.06,111.89z"/>
		</g>
	</g>
</g>
<g id="Flecha">
	<g>
		<path class="st4" d="M253.97,389.99L49.42,189.89c-16.71-16.34-17-43.14-0.66-59.85c16.34-16.73,43.15-17.01,59.85-0.66
			l143.1,139.98l138.56-146.15c16.08-16.95,42.88-17.68,59.83-1.59c16.96,16.08,17.68,42.87,1.59,59.83L253.97,389.99z"/>
	</g>
</g>
</svg>
